<?xml version="1.0" encoding="utf-8"?><svg width="50" height="27" viewBox="0 0 50 27" xmlns="http://www.w3.org/2000/svg" xmlns:xlink="http://www.w3.org/1999/xlink"><svg height="17.333" width="22.667" viewBox="0 0 22.667 17.333" id="mail" x="26.607" xmlns="http://www.w3.org/2000/svg"><path d="M0 0v3.066l11.333 9.468 11.334-9.468V0zm1.867 2.133v-.266H20.8v.266L11.333 10zm18.933 5.6v7.733H1.867V7.734H0v9.6h22.667v-9.6z"/></svg><svg height="26.567" width="26.607" viewBox="0 0 26.607 26.567" id="phone" xmlns="http://www.w3.org/2000/svg"><defs><clipPath id="a" clipPathUnits="userSpaceOnUse"><path d="M0 19.925h19.955V0H0z"/></clipPath></defs><g clip-path="url(#a)" transform="matrix(1.33333 0 0 -1.33333 0 26.567)"><path d="M17.906 10.52h-8.5v-1.2h8.5l-2.101-2.1.9-.9 3.1 3.1c.2.2.2.6 0 .9l-3.1 3.1-.9-.9zM8.105.52v6.2c0 .3-.3.6-.6.6h-4.4c0-.7.6-1.2 1.2-1.2h2.5v-5h-3.7c-1-.1-1.8.7-1.9 1.7v14c0 1 .8 1.8 1.7 1.8h3.901v-5h-2.4c-.7 0-1.2-.6-1.2-1.2h4.4c.3 0 .6.3.6.6v6.3c-.1.3-.4.6-.7.6h-4.4c-1.6.1-3-1.2-3.1-2.9V3.12c-.1-1.701 1.2-3.1 2.9-3.1h4.599c.3-.101.6.2.6.5"/></g></svg></svg>